<?xml version="1.0" encoding="UTF-8" standalone="no"?>
<!-- Created with Inkscape (http://www.inkscape.org/) -->

<svg
   width="85mm"
   height="13mm"
   viewBox="0 0 85 13"
   version="1.1"
   id="svg420"
   xml:space="preserve"
   inkscape:version="1.2.2 (b0a8486541, 2022-12-01)"
   sodipodi:docname="icons.svg"
   xmlns:inkscape="http://www.inkscape.org/namespaces/inkscape"
   xmlns:sodipodi="http://sodipodi.sourceforge.net/DTD/sodipodi-0.dtd"
   xmlns="http://www.w3.org/2000/svg"
   xmlns:svg="http://www.w3.org/2000/svg"><sodipodi:namedview
     id="namedview422"
     pagecolor="#505050"
     bordercolor="#eeeeee"
     borderopacity="1"
     inkscape:showpageshadow="0"
     inkscape:pageopacity="0"
     inkscape:pagecheckerboard="0"
     inkscape:deskcolor="#505050"
     inkscape:document-units="mm"
     showgrid="false"
     showguides="true"
     inkscape:zoom="2.5913013"
     inkscape:cx="160.34415"
     inkscape:cy="95.12595"
     inkscape:window-width="1920"
     inkscape:window-height="1019"
     inkscape:window-x="0"
     inkscape:window-y="32"
     inkscape:window-maximized="1"
     inkscape:current-layer="layer1"><sodipodi:guide
       position="19.593776,11.277217"
       orientation="0,-1"
       id="guide4332"
       inkscape:locked="false" /><sodipodi:guide
       position="31.60732,1.7215186"
       orientation="0,-1"
       id="guide4334"
       inkscape:locked="false" /></sodipodi:namedview><defs
     id="defs417" /><g
     inkscape:label="Ebene 1"
     inkscape:groupmode="layer"
     id="layer1"><path
       style="fill:#54d9ff;fill-opacity:1;stroke:none;stroke-width:0.264583px;stroke-linecap:butt;stroke-linejoin:miter;stroke-opacity:1"
       d="m 29.752469,2.2315028 c 0.757689,-0.1818025 1.833555,-0.1978559 1.810748,0.049139 L 28.454718,3.687524 C 28.368888,3.4356276 29.02861,2.6987835 29.752469,2.2315028 Z"
       id="path17773"
       sodipodi:nodetypes="cccc" /><path
       id="rect1402-7-3"
       style="opacity:0.99;fill:#4957bf;fill-opacity:1;stroke:none;stroke-width:12.3472;stroke-linecap:round;stroke-linejoin:round;paint-order:stroke fill markers"
       d="m 4.8714278,1.8317634 c -0.573905,0 -1.036112,0.4622074 -1.036112,1.0361125 V 10.24417 c 0,0.573905 0.462207,1.036112 1.036112,1.036112 h 6.3872072 c 0.06667,0 0.13172,-0.0067 0.19482,-0.0186 h 0.531234 c 0.88026,0 1.588534,-0.777001 1.588534,-1.7425287 0,-0.849005 -0.547746,-1.552545 -1.278475,-1.709973 V 2.8678759 c 0,-0.5739051 -0.462208,-1.0361125 -1.036113,-1.0361125 z" /><rect
       style="opacity:0.99;fill:#00abdf;fill-opacity:1;stroke:none;stroke-width:12.3472;stroke-linecap:round;stroke-linejoin:round;paint-order:stroke fill markers"
       id="rect1402-7"
       width="8.4591694"
       height="3.4856644"
       x="4.7604275"
       y="7.6724963"
       rx="1.4043826"
       ry="1.7428322" /><rect
       style="opacity:0.99;fill:#54d9ff;fill-opacity:1;stroke:none;stroke-width:12.3472;stroke-linecap:round;stroke-linejoin:round;stroke-opacity:0.835294;paint-order:stroke fill markers"
       id="rect1402"
       width="8.4591703"
       height="9.448472"
       x="3.4817259"
       y="1.7081383"
       rx="1.0359308"
       ry="1.0359308" /><g
       id="g3141"
       transform="translate(-15.132291,-4.8834921)"
       style="stroke:#adf7ff;stroke-opacity:1"><path
         style="fill:none;fill-opacity:1;stroke:#adf7ff;stroke-width:0.234101;stroke-linecap:butt;stroke-linejoin:miter;stroke-dasharray:0.936403, 0.234101;stroke-dashoffset:0;stroke-opacity:1"
         d="m 20.210027,13.194601 c 0,0 1.719025,-1.142071 2.861095,0 1.125607,1.125606 2.178627,0.0103 2.178627,0.0103"
         id="path60244-1"
         sodipodi:nodetypes="ccc" /><path
         style="fill:none;fill-opacity:1;stroke:#adf7ff;stroke-width:0.234101;stroke-linecap:butt;stroke-linejoin:miter;stroke-dasharray:0.936403, 0.234101;stroke-dashoffset:0;stroke-opacity:1"
         d="m 20.216873,14.329416 c 0,0 1.719024,-1.142072 2.861095,0 1.125607,1.125607 2.178626,0.0103 2.178626,0.0103"
         id="path60244-4-5"
         sodipodi:nodetypes="ccc" /><path
         style="fill:none;fill-opacity:1;stroke:#adf7ff;stroke-width:0.234101;stroke-linecap:butt;stroke-linejoin:miter;stroke-dasharray:0.936403, 0.234101;stroke-dashoffset:0;stroke-opacity:1"
         d="m 20.188417,11.890789 c 0,0 1.719024,-1.142072 2.861095,0 1.125607,1.125606 2.178626,0.0103 2.178626,0.0103"
         id="path60244-3-9"
         sodipodi:nodetypes="ccc" /></g><rect
       style="opacity:0.99;fill:#adf7ff;fill-opacity:1;stroke:none;stroke-width:12.3472;stroke-linecap:round;stroke-linejoin:round;stroke-opacity:0.835294;paint-order:stroke fill markers"
       id="rect4107"
       width="5.8170972"
       height="2.4374166"
       x="4.9153881"
       y="2.9418705"
       rx="0.6443969"
       ry="0.6443969" /><path
       style="fill:#adf7ff;fill-opacity:0.467921;stroke:none;stroke-width:0.264583px;stroke-linecap:butt;stroke-linejoin:miter;stroke-opacity:1"
       d="M 12.186967,11.097172 C 11.78066,11.067102 11.94419,10.528785 11.94419,10.18207 l -1.068546,0.973333 c 0,0 1.177129,0.04524 1.311319,-0.05823 z"
       id="path4227"
       sodipodi:nodetypes="ccccc" /><rect
       style="opacity:0.99;fill:#4957bf;fill-opacity:1;stroke:none;stroke-width:15.4401;stroke-linecap:round;stroke-linejoin:round;stroke-opacity:0.835294;paint-order:stroke fill markers"
       id="rect1402-9-6-61"
       width="10.578155"
       height="3.8735423"
       x="57.276253"
       y="2.4464681"
       rx="1.2954266"
       ry="1.2954266" /><rect
       style="opacity:0.99;fill:#54d9ff;fill-opacity:1;stroke:none;stroke-width:15.4401;stroke-linecap:round;stroke-linejoin:round;stroke-opacity:0.835294;paint-order:stroke fill markers"
       id="rect1402-9-6"
       width="10.578155"
       height="3.8735423"
       x="57.018238"
       y="2.2780926"
       rx="1.2954266"
       ry="1.2954266" /><rect
       style="opacity:0.99;fill:none;fill-opacity:1;stroke:#4957bf;stroke-width:0.424633;stroke-linecap:round;stroke-linejoin:round;stroke-dasharray:none;stroke-opacity:1;paint-order:stroke fill markers"
       id="rect1402-9-6-6-8"
       width="10.182158"
       height="3.7285349"
       x="57.439941"
       y="7.013525"
       rx="1.2469319"
       ry="1.2469319" /><rect
       style="opacity:0.99;fill:none;fill-opacity:1;stroke:#54d9ff;stroke-width:0.424632;stroke-linecap:round;stroke-linejoin:round;stroke-dasharray:none;stroke-opacity:1;paint-order:stroke fill markers"
       id="rect1402-9-6-6"
       width="10.182158"
       height="3.7285349"
       x="57.191586"
       y="6.8514524"
       rx="1.2469319"
       ry="1.2469319" /><circle
       style="opacity:0.99;fill:#00abdf;fill-opacity:1;stroke:none;stroke-width:15.4401;stroke-linecap:round;stroke-linejoin:round;stroke-opacity:0.835294;paint-order:stroke fill markers"
       id="path5959-9"
       cx="65.500282"
       cy="4.3415728"
       r="1.369748" /><circle
       style="opacity:0.99;fill:#adf7ff;fill-opacity:1;stroke:none;stroke-width:15.4401;stroke-linecap:round;stroke-linejoin:round;stroke-opacity:0.835294;paint-order:stroke fill markers"
       id="path5959"
       cx="65.32045"
       cy="4.2231407"
       r="1.369748" /><circle
       style="opacity:0.99;fill:#4957bf;fill-opacity:1;stroke:none;stroke-width:15.4401;stroke-linecap:round;stroke-linejoin:round;stroke-opacity:0.835294;paint-order:stroke fill markers"
       id="path5959-2-7"
       cx="59.571762"
       cy="8.8418503"
       r="1.369748" /><circle
       style="opacity:0.99;fill:#adf7ff;fill-opacity:1;stroke:none;stroke-width:15.4401;stroke-linecap:round;stroke-linejoin:round;stroke-opacity:0.835294;paint-order:stroke fill markers"
       id="path5959-2"
       cx="59.428543"
       cy="8.7215166"
       r="1.369748" /><path
       id="path13720-2"
       style="opacity:0.99;fill:#54d9ff;fill-opacity:1;stroke:none;stroke-width:0.352777;stroke-linecap:round;stroke-linejoin:round;stroke-dasharray:none;stroke-opacity:1;paint-order:stroke fill markers"
       d="M 21.948152,2.2652773 C 20.571946,2.2809104 19.367447,2.7996409 18.329768,3.8042015 18.154457,3.5449911 17.878653,3.2987953 17.469872,3.0874494 17.062517,3.4603115 16.948239,4.2839769 17.293139,5.0790591 a 3.0483737,3.0483737 0 0 0 -0.340031,1.3900957 3.0483737,3.0483737 0 0 0 0.132292,0.882117 0.64168823,0.31891739 23.217289 0 0 -0.238746,0.131775 0.64168823,0.31891739 23.217289 0 0 0.464055,0.54622 0.64168823,0.31891739 23.217289 0 0 0.09353,0.035657 3.0483737,3.0483737 0 0 0 2.597258,1.4526245 3.0483737,3.0483737 0 0 0 1.191141,-0.2444295 l 0.03824,0.044958 c 1.082739,0.1662615 2.038779,0.9232302 2.996199,1.6743152 -0.06364,-1.1520087 -0.464893,-3.2082896 -1.195275,-3.1651806 0.71257,-0.299982 1.664311,-0.59566 3.231327,-0.753442 -0.601081,-1.1349848 -2.713844,-2.906629 -3.635949,-2.153357 a 3.0483737,3.0483737 0 0 0 -5.17e-4,-5.167e-4 l 2.389002,-1.97559 C 23.91132,2.4793814 22.889649,2.2545828 21.948152,2.2652773 Z" /><path
       id="path13720"
       style="opacity:0.99;fill:#00abdf;fill-opacity:1;stroke:none;stroke-width:0.352777;stroke-linecap:round;stroke-linejoin:round;stroke-dasharray:none;stroke-opacity:1;paint-order:stroke fill markers"
       d="m 21.550824,2.019087 c -1.583428,0.017987 -2.939433,0.7012764 -4.07572,2.0251994 A 3.0483737,3.0483737 0 0 0 16.55578,6.2229648 3.0483737,3.0483737 0 0 0 19.604173,9.2713576 3.0483737,3.0483737 0 0 0 20.795315,9.026928 l 0.03824,0.044958 c 1.08274,0.1662617 2.038779,0.9232303 2.9962,1.674316 C 23.766118,9.5941913 23.364862,7.5379124 22.634479,7.5810215 23.34705,7.2810394 24.298789,6.9853622 25.865806,6.8275791 25.26472,5.6925957 23.151958,3.9209493 22.229852,4.6742221 a 3.0483737,3.0483737 0 0 0 -5.16e-4,-5.167e-4 l 2.389001,-1.97559 C 23.513991,2.2331907 22.492322,2.0083924 21.550824,2.019087 Z" /><path
       style="fill:#adf7ff;fill-opacity:1;stroke:none;stroke-width:0.264583px;stroke-linecap:butt;stroke-linejoin:miter;stroke-opacity:1"
       d="m 16.893747,7.6536102 c 0.855461,-0.4682883 1.369816,0.1852446 2.168972,0.5527325 2.507199,-0.8379655 1.444082,-3.2204985 0.533411,-3.2096879 -1.679699,0.1157617 -1.769394,4.4403685 -2.591853,0.2483255 -0.672669,0.7879824 -0.448106,1.7259209 -0.11053,2.4086299 z"
       id="path13829"
       sodipodi:nodetypes="ccccc" /><ellipse
       style="opacity:0.99;fill:#00abdf;fill-opacity:1;stroke:none;stroke-width:0.352777;stroke-linecap:round;stroke-linejoin:round;stroke-dasharray:none;stroke-opacity:0.755226;paint-order:stroke fill markers"
       id="path13888"
       cx="17.261812"
       cy="6.5565157"
       ry="0.5896275"
       rx="0.18113354" /><ellipse
       style="opacity:0.99;fill:#00abdf;fill-opacity:1;stroke:none;stroke-width:0.352777;stroke-linecap:round;stroke-linejoin:round;stroke-dasharray:none;stroke-opacity:0.755226;paint-order:stroke fill markers"
       id="path13883"
       cx="19.582712"
       cy="6.6597733"
       rx="0.28341255"
       ry="0.80363154" /><path
       style="fill:#00abdf;fill-opacity:1;stroke:none;stroke-width:0.264583px;stroke-linecap:butt;stroke-linejoin:miter;stroke-opacity:1"
       d="m 16.966077,4.9813219 c -0.428168,-0.8390465 -0.326169,-1.7438248 0.106656,-2.1399996 0.657146,0.3397549 0.971212,0.7693502 1.075314,1.1987865 z"
       id="path14360"
       sodipodi:nodetypes="cccc" /><ellipse
       style="opacity:0.99;fill:#00abdf;fill-opacity:1;stroke:none;stroke-width:0.352777;stroke-linecap:round;stroke-linejoin:round;stroke-dasharray:none;stroke-opacity:0.755226;paint-order:stroke fill markers"
       id="path14414"
       cx="-0.165912"
       cy="18.611746"
       rx="0.31891739"
       ry="0.64168823"
       transform="rotate(-66.782711)" /><path
       style="fill:#54d9ff;fill-opacity:1;stroke:none;stroke-width:0.264583px;stroke-linecap:butt;stroke-linejoin:miter;stroke-opacity:1"
       d="M 39.215593,2.2287135 C 38.457904,2.046911 37.382038,2.0308576 37.404845,2.2778525 l 3.108499,1.4068822 C 40.599174,3.4328383 39.939452,2.6959942 39.215593,2.2287135 Z"
       id="path17773-2"
       sodipodi:nodetypes="cccc" /><path
       style="fill:#4957bf;fill-opacity:1;stroke:none;stroke-width:0.264583px;stroke-linecap:butt;stroke-linejoin:miter;stroke-opacity:1"
       d="m 27.946414,11.056331 c 2.038592,0.837418 3.077584,-1.9076238 6.548853,-2.1107283 3.891248,0.3889419 3.937048,2.8363713 6.548853,2.1107283 C 43.37796,10.077515 42.109324,4.6927886 39.256489,2.9229865 37.237122,2.1390976 35.939594,3.188091 34.432234,3.1246389 32.59425,3.0413124 31.490651,2.1582507 29.607979,2.9826297 26.49137,5.2915619 25.84548,10.142166 27.946414,11.056331 Z"
       id="path16977-2"
       sodipodi:nodetypes="ccccccc" /><path
       style="fill:#00abdf;fill-opacity:1;stroke:none;stroke-width:0.264583px;stroke-linecap:butt;stroke-linejoin:miter;stroke-opacity:1"
       d="m 27.928143,10.681155 c 2.038592,0.837418 3.077584,-1.907624 6.548853,-2.1107285 3.891248,0.3889419 3.937048,2.8363715 6.548853,2.1107285 C 43.359689,9.7023389 42.091053,4.3176124 39.238218,2.5478103 37.218851,1.7639214 35.921323,2.8129148 34.413963,2.7494627 32.575979,2.6661362 31.47238,1.7830745 29.589708,2.6074535 26.473099,4.9163857 25.827209,9.7669902 27.928143,10.681155 Z"
       id="path16977"
       sodipodi:nodetypes="ccccccc" /><circle
       style="opacity:0.99;fill:#adf7ff;fill-opacity:1;stroke:none;stroke-width:0.352777;stroke-linecap:round;stroke-linejoin:round;stroke-dasharray:none;stroke-opacity:0.755226;paint-order:stroke fill markers"
       id="path17031"
       cx="37.265888"
       cy="7.903913"
       r="0.68752748" /><circle
       style="opacity:0.99;fill:#adf7ff;fill-opacity:1;stroke:none;stroke-width:0.352777;stroke-linecap:round;stroke-linejoin:round;stroke-dasharray:none;stroke-opacity:0.755226;paint-order:stroke fill markers"
       id="path17033"
       cx="38.768787"
       cy="6.8398814"
       r="0.67866731" /><circle
       style="opacity:0.99;fill:#adf7ff;fill-opacity:1;stroke:none;stroke-width:0.352777;stroke-linecap:round;stroke-linejoin:round;stroke-dasharray:none;stroke-opacity:0.755226;paint-order:stroke fill markers"
       id="path17035"
       cx="40.480358"
       cy="6.2399011"
       r="0.6609475" /><circle
       style="opacity:0.99;fill:#adf7ff;fill-opacity:1;stroke:none;stroke-width:0.352777;stroke-linecap:round;stroke-linejoin:round;stroke-dasharray:none;stroke-opacity:0.755226;paint-order:stroke fill markers"
       id="path17037"
       cx="39.414722"
       cy="4.7187338"
       r="0.46425763" /><circle
       style="opacity:0.99;fill:#adf7ff;fill-opacity:1;stroke:none;stroke-width:0.352777;stroke-linecap:round;stroke-linejoin:round;stroke-dasharray:none;stroke-opacity:0.755226;paint-order:stroke fill markers"
       id="path17039"
       cx="38.032284"
       cy="5.2408986"
       r="0.47134623" /><circle
       style="opacity:0.99;fill:#adf7ff;fill-opacity:1;stroke:none;stroke-width:0.352777;stroke-linecap:round;stroke-linejoin:round;stroke-dasharray:none;stroke-opacity:0.755226;paint-order:stroke fill markers"
       id="path17041"
       cx="36.702305"
       cy="6.1504884"
       r="0.48906574" /><circle
       style="opacity:0.99;fill:#adf7ff;fill-opacity:1;stroke:none;stroke-width:0.352777;stroke-linecap:round;stroke-linejoin:round;stroke-dasharray:none;stroke-opacity:0.755226;paint-order:stroke fill markers"
       id="path17043"
       cx="30.330189"
       cy="6.4863153"
       r="1.5221283" /><g
       id="g18104"
       transform="translate(-16.909776)"><circle
         style="opacity:0.99;fill:#4957bf;fill-opacity:1;stroke:none;stroke-width:0.352777;stroke-linecap:round;stroke-linejoin:round;stroke-dasharray:none;stroke-opacity:0.755226;paint-order:stroke fill markers"
         id="path17901-8"
         cx="67.131134"
         cy="6.4248972"
         r="4.3487172" /><circle
         style="opacity:0.99;fill:#54d9ff;fill-opacity:1;stroke:none;stroke-width:0.352777;stroke-linecap:round;stroke-linejoin:round;stroke-dasharray:none;stroke-opacity:0.755226;paint-order:stroke fill markers"
         id="path17901"
         cx="66.843452"
         cy="6.2502327"
         r="4.3487172" /><path
         id="path1255-1-2-4"
         style="fill:#adf7ff;fill-opacity:1;stroke:none;stroke-width:0.102143;stroke-linecap:butt;stroke-linejoin:miter;stroke-miterlimit:4;stroke-dasharray:none;stroke-opacity:1"
         d="m 66.116684,8.356602 c 0.06463,-0.4325877 0.02393,-0.8896436 0.02393,-0.8896436 0,0 -0.165943,-1.682 -0.481995,-2.2574479 -0.01984,-0.095038 -0.154956,-0.3859604 -0.189052,-0.7560174 -0.12367,-0.9410949 0.608413,-1.4612316 1.263273,-1.5149401 0.908011,-0.074471 1.505819,0.6879676 1.585527,1.4902353 0.133176,1.6653891 -1.098117,3.5540072 -2.20168,3.9278135 z"
         sodipodi:nodetypes="ccccccc" /><circle
         style="opacity:0.99;fill:#adf7ff;fill-opacity:1;stroke:none;stroke-width:0.352777;stroke-linecap:round;stroke-linejoin:round;stroke-dasharray:none;stroke-opacity:0.755226;paint-order:stroke fill markers"
         id="path18009"
         cx="66.859138"
         cy="9.1573067"
         r="0.68367159" /></g><g
       id="g8373"><path
         id="path4231-9"
         style="opacity:0.99;fill:#4957bf;fill-opacity:1;stroke-width:4.40223;stroke-linecap:square;stroke-linejoin:round;stroke-dasharray:13.2067, 13.2067;paint-order:stroke fill markers"
         inkscape:transform-center-x="-0.022037998"
         inkscape:transform-center-y="-2.3151286"
         d="m 80.717128,2.5372265 c 1.815891,1.0484054 -1.585084,11.6703975 -1.712324,8.7715235 -0.01591,-0.362359 -0.386623,-1.4569554 -0.47972,-1.7679994 -0.0931,-0.311044 -0.849797,0.4353309 -1.008086,0.178891 L 75.783474,8.7019358 c -0.299047,-0.00514 -0.06067,-0.9262494 -0.36491,-0.8603443 -0.304236,0.065905 -1.412356,0.2405572 -1.709779,0.3807968 -2.379385,1.1219173 4.931817,-6.8840446 7.008343,-5.6851618 z"
         sodipodi:nodetypes="sssccsss" /><path
         id="path31855-9-9-9-7-0-6-0"
         style="fill:#00abdf;fill-opacity:1;stroke:none;stroke-width:0.0352778;stroke-linecap:butt;stroke-linejoin:miter;stroke-dasharray:none;stroke-dashoffset:0;stroke-opacity:1"
         d="M 76.255224,4.6105925 C 75.667217,4.0999308 75.307775,3.5860104 74.985905,3.0718382 74.621163,3.8047646 74.899815,4.896055 75.032915,5.4312855 74.76913,5.0072919 74.464015,4.459119 74.236593,3.9509057 c -0.318402,0.9255588 0.772819,3.3755652 -0.451643,1.2342141 -0.127257,1.1253717 0.376372,1.6461573 0.853818,2.0008235"
         sodipodi:nodetypes="cccccc" /><path
         id="path31855-9-9-9-7-0-6"
         style="fill:#adf7ff;fill-opacity:1;stroke:none;stroke-width:0.03527778;stroke-linecap:butt;stroke-linejoin:miter;stroke-dasharray:none;stroke-dashoffset:0;stroke-opacity:1"
         d="M 76.297297,4.545376 C 75.70929,4.0347143 75.349848,3.5207939 75.027978,3.0066217 c -0.364742,0.7329264 -0.08609,1.8242168 0.04701,2.3594473 -0.263785,-0.4239936 -0.5689,-0.9721665 -0.796322,-1.4803798 -0.318402,0.9255588 0.772819,3.3755652 -0.451643,1.2342141 -0.127257,1.1253717 0.376372,1.6461573 0.853818,2.0008235"
         sodipodi:nodetypes="cccccc" /><path
         id="path4231"
         style="opacity:0.99;fill:#54d9ff;stroke-width:4.40223;stroke-linecap:square;stroke-linejoin:round;stroke-dasharray:13.2067, 13.2067;paint-order:stroke fill markers"
         inkscape:transform-center-x="-0.022037998"
         inkscape:transform-center-y="-2.3151286"
         d="M 80.651022,2.3088632 C 82.466913,3.3572686 79.065938,13.97926 78.938698,11.080386 78.922793,10.718027 78.552075,9.623431 78.458978,9.312387 78.365881,9.001343 77.609181,9.7477183 77.450892,9.4912779 L 75.717368,8.4735725 c -0.299047,-0.00514 -0.06067,-0.9262494 -0.36491,-0.8603443 -0.304236,0.065905 -1.412356,0.2405572 -1.709779,0.3807968 -2.379385,1.1219168 4.931817,-6.8840446 7.008343,-5.6851618 z"
         sodipodi:nodetypes="sssccsss" /><path
         style="fill:none;stroke:#f2d382;stroke-width:0.17815278;stroke-linecap:round;stroke-linejoin:round;stroke-dasharray:0.35630557,0.35630557;stroke-opacity:1;stroke-dashoffset:0"
         d="m 74.635762,8.4792873 0.294868,1.7046307 1.623688,-0.5969522 0.294868,1.7046312"
         id="path8015-3"
         sodipodi:nodetypes="cccc" /><path
         style="fill:none;stroke:#00abdf;stroke-width:0.17815278;stroke-linecap:round;stroke-linejoin:round;stroke-dasharray:0.35630557,0.35630557;stroke-opacity:1;stroke-dashoffset:0"
         d="m 74.61042,8.5247807 0.294867,1.7046313 1.623688,-0.5969527 0.294868,1.7046317"
         id="path8015"
         sodipodi:nodetypes="cccc" /><path
         style="fill:none;stroke:#f2d382;stroke-width:0.17815278;stroke-linecap:round;stroke-linejoin:round;stroke-dasharray:0.35630557,0.35630557;stroke-opacity:1;stroke-dashoffset:0"
         d="m 75.362247,8.8975142 0.294868,1.7046308 1.623688,-0.596952 0.294868,1.704631"
         id="path8015-2-9"
         sodipodi:nodetypes="cccc" /><path
         style="fill:none;stroke:#5869e5;stroke-width:0.17815278;stroke-linecap:round;stroke-linejoin:round;stroke-dasharray:0.35630557,0.35630557;stroke-opacity:1;stroke-dashoffset:0"
         d="m 75.314825,8.817434 0.294868,1.704631 1.623688,-0.5969524 0.294868,1.7046314"
         id="path8015-2"
         sodipodi:nodetypes="cccc" /><g
         id="g5045"
         transform="translate(-4.3037605,0.10364418)"><circle
           style="opacity:0.99;fill:none;fill-opacity:1;stroke:#00abdf;stroke-width:0.352778;stroke-linecap:round;stroke-linejoin:round;stroke-dasharray:none;stroke-opacity:1;paint-order:stroke fill markers"
           id="path5959-3-9-4"
           cx="82.94577"
           cy="5.4292378"
           r="1.369748" /><path
           id="path5959-3-8"
           style="opacity:0.99;fill:#4957bf;fill-opacity:0.794394;stroke:none;stroke-width:15.4401;stroke-linecap:round;stroke-linejoin:round;stroke-opacity:0.835294;paint-order:stroke fill markers"
           d="m 83.987989,4.976262 c -0.0049,0.00628 -0.0091,0.011774 -0.01499,0.01912 -0.01088,0.013692 -0.02335,0.029141 -0.03721,0.045992 -0.01386,0.016851 -0.02948,0.034952 -0.04599,0.05426 -0.0083,0.00965 -0.01646,0.019835 -0.02532,0.029972 -0.0089,0.010137 -0.01797,0.020474 -0.02739,0.031006 -0.0094,0.010532 -0.01951,0.0212 -0.02946,0.032039 -0.0099,0.010839 -0.02007,0.021498 -0.03049,0.032556 -0.01042,0.011059 -0.02118,0.022399 -0.03204,0.03359 -0.01086,0.01119 -0.02181,0.022356 -0.03307,0.03359 -0.01126,0.011234 -0.02249,0.0224 -0.03411,0.03359 -0.01162,0.01119 -0.02372,0.022531 -0.03566,0.03359 -0.01194,0.011058 -0.02396,0.021717 -0.03617,0.032556 -0.01221,0.010839 -0.02424,0.022024 -0.03669,0.032556 -0.01245,0.010532 -0.02508,0.020869 -0.03772,0.031006 -0.01265,0.010137 -0.02544,0.019801 -0.03824,0.029456 -0.0064,0.00483 -0.01269,0.00978 -0.01912,0.014469 -0.0064,0.00469 -0.01318,0.00941 -0.01964,0.013953 -0.0065,0.00454 -0.01264,0.00854 -0.01912,0.012919 -0.0065,0.00438 -0.01314,0.00871 -0.01964,0.012919 -0.0065,0.00421 -0.01313,0.00837 -0.01964,0.012402 -0.0065,0.00403 -0.01261,0.00805 -0.01912,0.011886 -0.0065,0.00384 -0.01312,0.00773 -0.01964,0.011369 -0.0065,0.00364 -0.01313,0.00691 -0.01964,0.010335 -0.0065,0.00342 -0.01314,0.00714 -0.01964,0.010335 -0.0065,0.0032 -0.01315,0.00582 -0.01964,0.00878 -0.0065,0.00296 -0.01266,0.00607 -0.01912,0.00878 -0.0065,0.00272 -0.0132,0.00529 -0.01964,0.00775 -0.0064,0.00246 -0.01271,0.00453 -0.01912,0.00672 -0.0064,0.00219 -0.01274,0.00429 -0.01912,0.0062 -0.0064,0.00191 -0.01278,0.00407 -0.01912,0.00568 -0.0063,0.00162 -0.01283,0.00282 -0.01912,0.00413 -0.0063,0.00132 -0.01236,0.00261 -0.0186,0.00362 -0.0062,0.001 -0.01242,0.0019 -0.0186,0.00258 -0.0062,6.802e-4 -0.01248,0.0012 -0.0186,0.00155 -0.0061,3.456e-4 -0.01203,5.168e-4 -0.01809,5.168e-4 -0.0061,0 -0.01215,-1.712e-4 -0.01809,-5.168e-4 -0.0059,-3.456e-4 -0.01175,-8.701e-4 -0.01757,-0.00155 -0.0058,-6.802e-4 -0.01186,-0.00158 -0.01757,-0.00258 -0.0057,-10e-4 -0.01093,-0.0023 -0.01654,-0.00362 -0.0056,-0.00132 -0.01155,-0.00252 -0.01705,-0.00413 -0.0055,-0.00162 -0.01062,-0.00378 -0.01602,-0.00568 -0.0054,-0.00191 -0.01072,-0.00401 -0.01602,-0.0062 -0.0053,-0.00219 -0.01081,-0.00426 -0.01602,-0.00672 -0.0052,-0.00246 -0.01038,-0.00504 -0.0155,-0.00775 -0.0051,-0.00272 -0.01,-0.00582 -0.01499,-0.00878 -0.005,-0.00296 -0.01003,-0.00559 -0.01499,-0.00878 -0.005,-0.0032 -0.01011,-0.00691 -0.01499,-0.010335 -0.0049,-0.00342 -0.0097,-0.0067 -0.01447,-0.010335 -0.0048,-0.00364 -0.0097,-0.00753 -0.01447,-0.011369 -0.0047,-0.00384 -0.0093,-0.00785 -0.01395,-0.011886 -0.0047,-0.00403 -0.0094,-0.00819 -0.01395,-0.012402 -0.0046,-0.00421 -0.0089,-0.00854 -0.01344,-0.012919 -0.0045,-0.00438 -0.0089,-0.00838 -0.01344,-0.012919 -0.0045,-0.00454 -0.009,-0.00926 -0.01344,-0.013953 -0.0044,-0.00469 -0.009,-0.00964 -0.01344,-0.014469 -0.0088,-0.00965 -0.01723,-0.019319 -0.02584,-0.029456 -0.0086,-0.010137 -0.01736,-0.020474 -0.02584,-0.031006 -0.0085,-0.010532 -0.01695,-0.021717 -0.02532,-0.032556 -0.0084,-0.010839 -0.01651,-0.021498 -0.02481,-0.032556 -0.01658,-0.022117 -0.03315,-0.044711 -0.04961,-0.067179 -0.01646,-0.022468 -0.03302,-0.045062 -0.04961,-0.067179 -0.0083,-0.011059 -0.01644,-0.021717 -0.02481,-0.032556 -0.0084,-0.010839 -0.01685,-0.021507 -0.02532,-0.032039 -0.0085,-0.010532 -0.01723,-0.020869 -0.02584,-0.031006 -0.0086,-0.010137 -0.01706,-0.020318 -0.02584,-0.029972 -0.0044,-0.00483 -0.009,-0.00926 -0.01344,-0.013953 -0.0044,-0.00469 -0.0089,-0.00941 -0.01344,-0.013953 -0.0045,-0.00454 -0.0089,-0.00905 -0.01344,-0.013436 -0.0045,-0.00438 -0.0088,-0.00871 -0.01344,-0.012919 -0.0046,-0.00421 -0.0093,-0.00837 -0.01395,-0.012402 -0.0047,-0.00403 -0.0097,-0.00805 -0.01447,-0.011886 -0.0047,-0.00384 -0.0092,-0.00773 -0.01395,-0.011369 -0.0048,-0.00364 -0.0096,-0.00691 -0.01447,-0.010335 -0.0049,-0.00342 -0.01003,-0.00662 -0.01499,-0.00982 -0.005,-0.0032 -0.01,-0.00634 -0.01499,-0.0093 -0.005,-0.00296 -0.0099,-0.00607 -0.01499,-0.00878 -0.0051,-0.00272 -0.01029,-0.00529 -0.0155,-0.00775 -0.0052,-0.00246 -0.01072,-0.00453 -0.01602,-0.00672 -0.0053,-0.00219 -0.01062,-0.00429 -0.01602,-0.0062 -0.0054,-0.00191 -0.01052,-0.00355 -0.01602,-0.00517 -0.0055,-0.00162 -0.01145,-0.00333 -0.01705,-0.00465 -0.0056,-0.00132 -0.01082,-0.00261 -0.01654,-0.00362 -0.0057,-10e-4 -0.01175,-0.0019 -0.01757,-0.00258 -0.0058,-6.802e-4 -0.01163,-0.0012 -0.01757,-0.00155 -0.0059,-3.456e-4 -0.01203,-5.168e-4 -0.01809,-5.168e-4 -0.0061,0 -0.01196,1.712e-4 -0.01809,5.168e-4 -0.0061,3.456e-4 -0.01242,8.701e-4 -0.0186,0.00155 -0.0062,6.802e-4 -0.01236,0.00158 -0.0186,0.00258 -0.0062,0.001 -0.01231,0.0023 -0.0186,0.00362 -0.0063,0.00132 -0.01278,0.00303 -0.01912,0.00465 -0.0063,0.00162 -0.01275,0.00326 -0.01912,0.00517 -0.0064,0.00191 -0.01271,0.00401 -0.01912,0.0062 -0.0064,0.00219 -0.01268,0.00426 -0.01912,0.00672 -0.0064,0.00246 -0.01317,0.00504 -0.01964,0.00775 -0.0065,0.00272 -0.01264,0.00582 -0.01912,0.00878 -0.0065,0.00296 -0.01314,0.0061 -0.01964,0.0093 -0.0065,0.0032 -0.01313,0.0064 -0.01964,0.00982 -0.0065,0.00342 -0.01312,0.0067 -0.01964,0.010335 -0.0065,0.00364 -0.01313,0.00753 -0.01964,0.011369 -0.0065,0.00384 -0.01261,0.00785 -0.01912,0.011886 -0.0065,0.00403 -0.01314,0.00819 -0.01964,0.012402 -0.0065,0.00421 -0.01316,0.00854 -0.01964,0.012919 -0.0065,0.00438 -0.01266,0.00889 -0.01912,0.013436 -0.0065,0.00454 -0.0132,0.00926 -0.01964,0.013953 -0.0064,0.00469 -0.01272,0.00913 -0.01912,0.013953 -0.0128,0.00965 -0.02559,0.019835 -0.03824,0.029972 -0.01265,0.010137 -0.02527,0.020474 -0.03772,0.031006 -0.01245,0.010532 -0.02448,0.0212 -0.03669,0.032039 -0.01221,0.010839 -0.02424,0.021498 -0.03617,0.032556 -0.01194,0.011059 -0.02404,0.022399 -0.03566,0.03359 -0.01162,0.01119 -0.02285,0.022356 -0.03411,0.03359 -0.01126,0.011234 -0.02273,0.0224 -0.03359,0.03359 -0.01086,0.01119 -0.0211,0.022531 -0.03152,0.03359 -0.01042,0.011058 -0.02055,0.021717 -0.03049,0.032556 -0.0099,0.010839 -0.02003,0.022024 -0.02946,0.032556 -0.0094,0.010532 -0.01853,0.020869 -0.02739,0.031006 -0.0089,0.010137 -0.01706,0.019801 -0.02532,0.029456 -0.01651,0.019309 -0.03213,0.037409 -0.04599,0.05426 -0.01386,0.016851 -0.02632,0.0323 -0.03721,0.045992 -0.004,0.005 -0.0068,0.0084 -0.01033,0.012919 a 1.369748,1.369748 0 0 0 1.34152,1.0970907 1.369748,1.369748 0 0 0 1.369942,-1.3699423 1.369748,1.369748 0 0 0 -0.04444,-0.3451985 z" /><circle
           style="opacity:0.99;fill:none;fill-opacity:1;stroke:#adf7ff;stroke-width:0.352778;stroke-linecap:round;stroke-linejoin:round;stroke-dasharray:none;stroke-opacity:1;paint-order:stroke fill markers"
           id="path5959-3-9"
           cx="82.754257"
           cy="5.3070068"
           r="1.369748" /></g></g></g></svg>
