<?xml version="1.0" encoding="UTF-8" standalone="no"?>
<!-- Created with Inkscape (http://www.inkscape.org/) -->

<svg
   width="71mm"
   height="13mm"
   viewBox="0 0 71 13"
   version="1.1"
   id="svg420"
   xml:space="preserve"
   inkscape:version="1.2.1 (9c6d41e410, 2022-07-14)"
   sodipodi:docname="icons.svg"
   xmlns:inkscape="http://www.inkscape.org/namespaces/inkscape"
   xmlns:sodipodi="http://sodipodi.sourceforge.net/DTD/sodipodi-0.dtd"
   xmlns="http://www.w3.org/2000/svg"
   xmlns:svg="http://www.w3.org/2000/svg"><sodipodi:namedview
     id="namedview422"
     pagecolor="#505050"
     bordercolor="#eeeeee"
     borderopacity="1"
     inkscape:showpageshadow="0"
     inkscape:pageopacity="0"
     inkscape:pagecheckerboard="0"
     inkscape:deskcolor="#505050"
     inkscape:document-units="mm"
     showgrid="false"
     showguides="true"
     inkscape:zoom="2.1592346"
     inkscape:cx="225.77445"
     inkscape:cy="105.12984"
     inkscape:window-width="1920"
     inkscape:window-height="1019"
     inkscape:window-x="0"
     inkscape:window-y="32"
     inkscape:window-maximized="1"
     inkscape:current-layer="layer1"><sodipodi:guide
       position="19.593776,11.277217"
       orientation="0,-1"
       id="guide4332"
       inkscape:locked="false" /><sodipodi:guide
       position="31.60732,1.7215186"
       orientation="0,-1"
       id="guide4334"
       inkscape:locked="false" /></sodipodi:namedview><defs
     id="defs417" /><g
     inkscape:label="Ebene 1"
     inkscape:groupmode="layer"
     id="layer1"><path
       style="fill:#54d9ff;fill-opacity:1;stroke:none;stroke-width:0.264583px;stroke-linecap:butt;stroke-linejoin:miter;stroke-opacity:1"
       d="m 29.752469,2.2315028 c 0.757689,-0.1818025 1.833555,-0.1978559 1.810748,0.049139 L 28.454718,3.687524 C 28.368888,3.4356276 29.02861,2.6987835 29.752469,2.2315028 Z"
       id="path17773"
       sodipodi:nodetypes="cccc" /><path
       id="rect1402-7-3"
       style="opacity:0.99;fill:#4957bf;fill-opacity:1;stroke:none;stroke-width:12.3472;stroke-linecap:round;stroke-linejoin:round;paint-order:stroke fill markers"
       d="m 4.8714278,1.8317634 c -0.573905,0 -1.036112,0.4622074 -1.036112,1.0361125 V 10.24417 c 0,0.573905 0.462207,1.036112 1.036112,1.036112 h 6.3872072 c 0.06667,0 0.13172,-0.0067 0.19482,-0.0186 h 0.531234 c 0.88026,0 1.588534,-0.777001 1.588534,-1.7425287 0,-0.849005 -0.547746,-1.552545 -1.278475,-1.709973 V 2.8678759 c 0,-0.5739051 -0.462208,-1.0361125 -1.036113,-1.0361125 z" /><rect
       style="opacity:0.99;fill:#00abdf;fill-opacity:1;stroke:none;stroke-width:12.3472;stroke-linecap:round;stroke-linejoin:round;paint-order:stroke fill markers"
       id="rect1402-7"
       width="8.4591694"
       height="3.4856644"
       x="4.7604275"
       y="7.6724963"
       rx="1.4043826"
       ry="1.7428322" /><rect
       style="opacity:0.99;fill:#54d9ff;fill-opacity:1;stroke:none;stroke-width:12.3472;stroke-linecap:round;stroke-linejoin:round;stroke-opacity:0.835294;paint-order:stroke fill markers"
       id="rect1402"
       width="8.4591703"
       height="9.448472"
       x="3.4817259"
       y="1.7081383"
       rx="1.0359308"
       ry="1.0359308" /><g
       id="g3141"
       transform="translate(-15.132291,-4.8834921)"
       style="stroke:#adf7ff;stroke-opacity:1"><path
         style="fill:none;fill-opacity:1;stroke:#adf7ff;stroke-width:0.234101;stroke-linecap:butt;stroke-linejoin:miter;stroke-dasharray:0.936403, 0.234101;stroke-dashoffset:0;stroke-opacity:1"
         d="m 20.210027,13.194601 c 0,0 1.719025,-1.142071 2.861095,0 1.125607,1.125606 2.178627,0.0103 2.178627,0.0103"
         id="path60244-1"
         sodipodi:nodetypes="ccc" /><path
         style="fill:none;fill-opacity:1;stroke:#adf7ff;stroke-width:0.234101;stroke-linecap:butt;stroke-linejoin:miter;stroke-dasharray:0.936403, 0.234101;stroke-dashoffset:0;stroke-opacity:1"
         d="m 20.216873,14.329416 c 0,0 1.719024,-1.142072 2.861095,0 1.125607,1.125607 2.178626,0.0103 2.178626,0.0103"
         id="path60244-4-5"
         sodipodi:nodetypes="ccc" /><path
         style="fill:none;fill-opacity:1;stroke:#adf7ff;stroke-width:0.234101;stroke-linecap:butt;stroke-linejoin:miter;stroke-dasharray:0.936403, 0.234101;stroke-dashoffset:0;stroke-opacity:1"
         d="m 20.188417,11.890789 c 0,0 1.719024,-1.142072 2.861095,0 1.125607,1.125606 2.178626,0.0103 2.178626,0.0103"
         id="path60244-3-9"
         sodipodi:nodetypes="ccc" /></g><rect
       style="opacity:0.99;fill:#adf7ff;fill-opacity:1;stroke:none;stroke-width:12.3472;stroke-linecap:round;stroke-linejoin:round;stroke-opacity:0.835294;paint-order:stroke fill markers"
       id="rect4107"
       width="5.8170972"
       height="2.4374166"
       x="4.9153881"
       y="2.9418705"
       rx="0.6443969"
       ry="0.6443969" /><path
       style="fill:#adf7ff;fill-opacity:0.467921;stroke:none;stroke-width:0.264583px;stroke-linecap:butt;stroke-linejoin:miter;stroke-opacity:1"
       d="M 12.186967,11.097172 C 11.78066,11.067102 11.94419,10.528785 11.94419,10.18207 l -1.068546,0.973333 c 0,0 1.177129,0.04524 1.311319,-0.05823 z"
       id="path4227"
       sodipodi:nodetypes="ccccc" /><g
       id="g6394"
       transform="translate(10.118699)"><rect
         style="opacity:0.99;fill:#4957bf;fill-opacity:1;stroke:none;stroke-width:15.4401;stroke-linecap:round;stroke-linejoin:round;stroke-opacity:0.835294;paint-order:stroke fill markers"
         id="rect1402-9-6-61"
         width="10.578155"
         height="3.8735423"
         x="47.157555"
         y="2.4464681"
         rx="1.2954266"
         ry="1.2954266" /><rect
         style="opacity:0.99;fill:#54d9ff;fill-opacity:1;stroke:none;stroke-width:15.4401;stroke-linecap:round;stroke-linejoin:round;stroke-opacity:0.835294;paint-order:stroke fill markers"
         id="rect1402-9-6"
         width="10.578155"
         height="3.8735423"
         x="46.89954"
         y="2.2780926"
         rx="1.2954266"
         ry="1.2954266" /><rect
         style="opacity:0.99;fill:none;fill-opacity:1;stroke:#4957bf;stroke-width:0.424633;stroke-linecap:round;stroke-linejoin:round;stroke-dasharray:none;stroke-opacity:1;paint-order:stroke fill markers"
         id="rect1402-9-6-6-8"
         width="10.182158"
         height="3.7285349"
         x="47.321243"
         y="7.013525"
         rx="1.2469319"
         ry="1.2469319" /><rect
         style="opacity:0.99;fill:none;fill-opacity:1;stroke:#54d9ff;stroke-width:0.424632;stroke-linecap:round;stroke-linejoin:round;stroke-dasharray:none;stroke-opacity:1;paint-order:stroke fill markers"
         id="rect1402-9-6-6"
         width="10.182158"
         height="3.7285349"
         x="47.072887"
         y="6.8514524"
         rx="1.2469319"
         ry="1.2469319" /><circle
         style="opacity:0.99;fill:#00abdf;fill-opacity:1;stroke:none;stroke-width:15.4401;stroke-linecap:round;stroke-linejoin:round;stroke-opacity:0.835294;paint-order:stroke fill markers"
         id="path5959-9"
         cx="55.38158"
         cy="4.3415728"
         r="1.369748" /><circle
         style="opacity:0.99;fill:#adf7ff;fill-opacity:1;stroke:none;stroke-width:15.4401;stroke-linecap:round;stroke-linejoin:round;stroke-opacity:0.835294;paint-order:stroke fill markers"
         id="path5959"
         cx="55.201748"
         cy="4.2231407"
         r="1.369748" /><circle
         style="opacity:0.99;fill:#4957bf;fill-opacity:1;stroke:none;stroke-width:15.4401;stroke-linecap:round;stroke-linejoin:round;stroke-opacity:0.835294;paint-order:stroke fill markers"
         id="path5959-2-7"
         cx="49.453064"
         cy="8.8418503"
         r="1.369748" /><circle
         style="opacity:0.99;fill:#adf7ff;fill-opacity:1;stroke:none;stroke-width:15.4401;stroke-linecap:round;stroke-linejoin:round;stroke-opacity:0.835294;paint-order:stroke fill markers"
         id="path5959-2"
         cx="49.309845"
         cy="8.7215166"
         r="1.369748" /></g><g
       id="g16144"
       transform="translate(-44.161444,-0.62364567)"><path
         id="path13720-2"
         style="opacity:0.99;fill:#54d9ff;fill-opacity:1;stroke:none;stroke-width:0.352777;stroke-linecap:round;stroke-linejoin:round;stroke-dasharray:none;stroke-opacity:1;paint-order:stroke fill markers"
         d="M 66.109596,2.888923 C 64.73339,2.9045561 63.528891,3.4232866 62.491212,4.4278472 62.315901,4.1686368 62.040097,3.922441 61.631316,3.7110951 61.223961,4.0839572 61.109683,4.9076226 61.454583,5.7027048 a 3.0483737,3.0483737 0 0 0 -0.340031,1.3900957 3.0483737,3.0483737 0 0 0 0.132292,0.882117 0.64168823,0.31891739 23.217289 0 0 -0.238746,0.131775 0.64168823,0.31891739 23.217289 0 0 0.464055,0.54622 0.64168823,0.31891739 23.217289 0 0 0.09353,0.035657 3.0483737,3.0483737 0 0 0 2.597258,1.4526245 3.0483737,3.0483737 0 0 0 1.191141,-0.2444295 l 0.03824,0.044958 c 1.082739,0.1662615 2.038779,0.9232305 2.996199,1.6743155 -0.06364,-1.152009 -0.464893,-3.2082899 -1.195275,-3.1651809 0.71257,-0.299982 1.664311,-0.59566 3.231327,-0.753442 -0.601081,-1.1349848 -2.713844,-2.906629 -3.635949,-2.153357 a 3.0483737,3.0483737 0 0 0 -5.17e-4,-5.167e-4 l 2.389002,-1.97559 C 68.072764,3.1030271 67.051093,2.8782285 66.109596,2.888923 Z" /><path
         id="path13720"
         style="opacity:0.99;fill:#00abdf;fill-opacity:1;stroke:none;stroke-width:0.352777;stroke-linecap:round;stroke-linejoin:round;stroke-dasharray:none;stroke-opacity:1;paint-order:stroke fill markers"
         d="m 65.712268,2.6427327 c -1.583428,0.017987 -2.939433,0.7012764 -4.07572,2.0251994 a 3.0483737,3.0483737 0 0 0 -0.919324,2.1786784 3.0483737,3.0483737 0 0 0 3.048393,3.0483928 3.0483737,3.0483737 0 0 0 1.191142,-0.2444296 l 0.03824,0.044958 c 1.08274,0.1662617 2.038779,0.9232303 2.9962,1.6743163 C 67.927562,10.217837 67.526306,8.1615581 66.795923,8.2046672 67.508494,7.9046851 68.460233,7.6090079 70.02725,7.4512248 69.426164,6.3162414 67.313402,4.544595 66.391296,5.2978678 a 3.0483737,3.0483737 0 0 0 -5.16e-4,-5.167e-4 l 2.389001,-1.97559 C 67.675435,2.8568364 66.653766,2.6320381 65.712268,2.6427327 Z" /><path
         style="fill:#adf7ff;fill-opacity:1;stroke:none;stroke-width:0.264583px;stroke-linecap:butt;stroke-linejoin:miter;stroke-opacity:1"
         d="m 61.055191,8.2772559 c 0.855461,-0.4682883 1.369816,0.1852446 2.168972,0.5527325 2.507199,-0.8379655 1.444082,-3.2204985 0.533411,-3.2096879 -1.679699,0.1157617 -1.769394,4.4403685 -2.591853,0.2483255 -0.672669,0.7879824 -0.448106,1.7259209 -0.11053,2.4086299 z"
         id="path13829"
         sodipodi:nodetypes="ccccc" /><ellipse
         style="opacity:0.99;fill:#00abdf;fill-opacity:1;stroke:none;stroke-width:0.352777;stroke-linecap:round;stroke-linejoin:round;stroke-dasharray:none;stroke-opacity:0.755226;paint-order:stroke fill markers"
         id="path13888"
         cx="61.423256"
         cy="7.1801615"
         ry="0.5896275"
         rx="0.18113354" /><ellipse
         style="opacity:0.99;fill:#00abdf;fill-opacity:1;stroke:none;stroke-width:0.352777;stroke-linecap:round;stroke-linejoin:round;stroke-dasharray:none;stroke-opacity:0.755226;paint-order:stroke fill markers"
         id="path13883"
         cx="63.744156"
         cy="7.2834191"
         rx="0.28341255"
         ry="0.80363154" /><path
         style="fill:#00abdf;fill-opacity:1;stroke:none;stroke-width:0.264583px;stroke-linecap:butt;stroke-linejoin:miter;stroke-opacity:1"
         d="M 61.127521,5.6049676 C 60.699353,4.7659211 60.801352,3.8611428 61.234177,3.464968 c 0.657146,0.3397549 0.971212,0.7693502 1.075314,1.1987865 z"
         id="path14360"
         sodipodi:nodetypes="cccc" /><ellipse
         style="opacity:0.99;fill:#00abdf;fill-opacity:1;stroke:none;stroke-width:0.352777;stroke-linecap:round;stroke-linejoin:round;stroke-dasharray:none;stroke-opacity:0.755226;paint-order:stroke fill markers"
         id="path14414"
         cx="16.670238"
         cy="59.442692"
         rx="0.31891739"
         ry="0.64168823"
         transform="rotate(-66.782711)" /></g><path
       style="fill:#54d9ff;fill-opacity:1;stroke:none;stroke-width:0.264583px;stroke-linecap:butt;stroke-linejoin:miter;stroke-opacity:1"
       d="M 39.215593,2.2287135 C 38.457904,2.046911 37.382038,2.0308576 37.404845,2.2778525 l 3.108499,1.4068822 C 40.599174,3.4328383 39.939452,2.6959942 39.215593,2.2287135 Z"
       id="path17773-2"
       sodipodi:nodetypes="cccc" /><path
       style="fill:#4957bf;fill-opacity:1;stroke:none;stroke-width:0.264583px;stroke-linecap:butt;stroke-linejoin:miter;stroke-opacity:1"
       d="m 27.946414,11.056331 c 2.038592,0.837418 3.077584,-1.9076238 6.548853,-2.1107283 3.891248,0.3889419 3.937048,2.8363713 6.548853,2.1107283 C 43.37796,10.077515 42.109324,4.6927886 39.256489,2.9229865 37.237122,2.1390976 35.939594,3.188091 34.432234,3.1246389 32.59425,3.0413124 31.490651,2.1582507 29.607979,2.9826297 26.49137,5.2915619 25.84548,10.142166 27.946414,11.056331 Z"
       id="path16977-2"
       sodipodi:nodetypes="ccccccc" /><path
       style="fill:#00abdf;fill-opacity:1;stroke:none;stroke-width:0.264583px;stroke-linecap:butt;stroke-linejoin:miter;stroke-opacity:1"
       d="m 27.928143,10.681155 c 2.038592,0.837418 3.077584,-1.907624 6.548853,-2.1107285 3.891248,0.3889419 3.937048,2.8363715 6.548853,2.1107285 C 43.359689,9.7023389 42.091053,4.3176124 39.238218,2.5478103 37.218851,1.7639214 35.921323,2.8129148 34.413963,2.7494627 32.575979,2.6661362 31.47238,1.7830745 29.589708,2.6074535 26.473099,4.9163857 25.827209,9.7669902 27.928143,10.681155 Z"
       id="path16977"
       sodipodi:nodetypes="ccccccc" /><circle
       style="opacity:0.99;fill:#adf7ff;fill-opacity:1;stroke:none;stroke-width:0.352777;stroke-linecap:round;stroke-linejoin:round;stroke-dasharray:none;stroke-opacity:0.755226;paint-order:stroke fill markers"
       id="path17031"
       cx="37.265888"
       cy="7.903913"
       r="0.68752748" /><circle
       style="opacity:0.99;fill:#adf7ff;fill-opacity:1;stroke:none;stroke-width:0.352777;stroke-linecap:round;stroke-linejoin:round;stroke-dasharray:none;stroke-opacity:0.755226;paint-order:stroke fill markers"
       id="path17033"
       cx="38.768787"
       cy="6.8398814"
       r="0.67866731" /><circle
       style="opacity:0.99;fill:#adf7ff;fill-opacity:1;stroke:none;stroke-width:0.352777;stroke-linecap:round;stroke-linejoin:round;stroke-dasharray:none;stroke-opacity:0.755226;paint-order:stroke fill markers"
       id="path17035"
       cx="40.480358"
       cy="6.2399011"
       r="0.6609475" /><circle
       style="opacity:0.99;fill:#adf7ff;fill-opacity:1;stroke:none;stroke-width:0.352777;stroke-linecap:round;stroke-linejoin:round;stroke-dasharray:none;stroke-opacity:0.755226;paint-order:stroke fill markers"
       id="path17037"
       cx="39.414722"
       cy="4.7187338"
       r="0.46425763" /><circle
       style="opacity:0.99;fill:#adf7ff;fill-opacity:1;stroke:none;stroke-width:0.352777;stroke-linecap:round;stroke-linejoin:round;stroke-dasharray:none;stroke-opacity:0.755226;paint-order:stroke fill markers"
       id="path17039"
       cx="38.032284"
       cy="5.2408986"
       r="0.47134623" /><circle
       style="opacity:0.99;fill:#adf7ff;fill-opacity:1;stroke:none;stroke-width:0.352777;stroke-linecap:round;stroke-linejoin:round;stroke-dasharray:none;stroke-opacity:0.755226;paint-order:stroke fill markers"
       id="path17041"
       cx="36.702305"
       cy="6.1504884"
       r="0.48906574" /><circle
       style="opacity:0.99;fill:#adf7ff;fill-opacity:1;stroke:none;stroke-width:0.352777;stroke-linecap:round;stroke-linejoin:round;stroke-dasharray:none;stroke-opacity:0.755226;paint-order:stroke fill markers"
       id="path17043"
       cx="30.330189"
       cy="6.4863153"
       r="1.5221283" /><g
       id="g18104"
       transform="translate(-16.909776)"><circle
         style="opacity:0.99;fill:#4957bf;fill-opacity:1;stroke:none;stroke-width:0.352777;stroke-linecap:round;stroke-linejoin:round;stroke-dasharray:none;stroke-opacity:0.755226;paint-order:stroke fill markers"
         id="path17901-8"
         cx="67.131134"
         cy="6.4248972"
         r="4.3487172" /><circle
         style="opacity:0.99;fill:#54d9ff;fill-opacity:1;stroke:none;stroke-width:0.352777;stroke-linecap:round;stroke-linejoin:round;stroke-dasharray:none;stroke-opacity:0.755226;paint-order:stroke fill markers"
         id="path17901"
         cx="66.843452"
         cy="6.2502327"
         r="4.3487172" /><path
         id="path1255-1-2-4"
         style="fill:#adf7ff;fill-opacity:1;stroke:none;stroke-width:0.102143;stroke-linecap:butt;stroke-linejoin:miter;stroke-miterlimit:4;stroke-dasharray:none;stroke-opacity:1"
         d="m 66.116684,8.356602 c 0.06463,-0.4325877 0.02393,-0.8896436 0.02393,-0.8896436 0,0 -0.165943,-1.682 -0.481995,-2.2574479 -0.01984,-0.095038 -0.154956,-0.3859604 -0.189052,-0.7560174 -0.12367,-0.9410949 0.608413,-1.4612316 1.263273,-1.5149401 0.908011,-0.074471 1.505819,0.6879676 1.585527,1.4902353 0.133176,1.6653891 -1.098117,3.5540072 -2.20168,3.9278135 z"
         sodipodi:nodetypes="ccccccc" /><circle
         style="opacity:0.99;fill:#adf7ff;fill-opacity:1;stroke:none;stroke-width:0.352777;stroke-linecap:round;stroke-linejoin:round;stroke-dasharray:none;stroke-opacity:0.755226;paint-order:stroke fill markers"
         id="path18009"
         cx="66.859138"
         cy="9.1573067"
         r="0.68367159" /></g></g></svg>
